<svg width="199" height="199" viewBox="0 0 199 199" fill="none" xmlns="http://www.w3.org/2000/svg">
<path d="M99.9915 136.792C86.7648 136.792 76.4395 133.165 69.0155 125.912C61.5915 118.659 57.8795 108.376 57.8795 95.064V45.4H83.2235V94.296C83.2235 101.976 84.7168 107.48 87.7035 110.808C90.7755 114.136 94.9568 115.8 100.248 115.8C105.538 115.8 109.677 114.136 112.664 110.808C115.65 107.48 117.144 101.976 117.144 94.296V45.4H142.104V95.064C142.104 108.376 138.392 118.659 130.968 125.912C123.544 133.165 113.218 136.792 99.9915 136.792Z" fill="#A379C9"/>
<line x1="58" y1="162.5" x2="142" y2="162.5" stroke="#A379C9" stroke-width="19"/>
</svg>
